<?xml version="1.0" encoding="utf-8"?>
<!-- Generator: Adobe Illustrator 17.0.0, SVG Export Plug-In . SVG Version: 6.00 Build 0)  -->
<!DOCTYPE svg PUBLIC "-//W3C//DTD SVG 1.1//EN" "http://www.w3.org/Graphics/SVG/1.1/DTD/svg11.dtd">
<svg version="1.1" id="Layer_1" xmlns="http://www.w3.org/2000/svg" xmlns:xlink="http://www.w3.org/1999/xlink" x="0px" y="0px"
	 width="360px" height="360px" viewBox="0 0 360 360" enable-background="new 0 0 360 360" xml:space="preserve">
<path stroke="#000000" stroke-miterlimit="10" d="M167.053,34.826c0,0,43.191,21.529,42.609,69.24L240.5,127.34
	c0,0-5.819,9.31-12.801,14.546c0,0-1.164,12.219,7.564,15.71c0,0,0.582,6.4-8.146,10.473c0,0,16.874,8.146,1.164,18.619
	c0,0,12.801,29.093-13.383,31.42h-47.846c0,0-80.161,69.822-11.503,124.516c0,0-77.386-15.71-50.039-104.733
	c0,0,16.874-35.493,21.529-57.603c0,0,29.674,20.365,68.658,18.037c0,0-17.456-9.31-21.529-21.529c0,0,11.424,16.422,36.075,8.146
	c0,0-33.78-8.728-40.164-36.657c0,0,13.399,23.274,27.945,16.292c0,0-27.347-4.073-16.292-65.167
	C181.733,99.412,186.119,54.609,167.053,34.826z"/>
</svg>
